<?xml version="1.0" standalone="no"?>
<!DOCTYPE svg PUBLIC "-//W3C//DTD SVG 20010904//EN"
 "http://www.w3.org/TR/2001/REC-SVG-20010904/DTD/svg10.dtd">
<svg version="1.0" xmlns="http://www.w3.org/2000/svg"
 width="120.000000pt" height="120.000000pt" viewBox="0 0 120.000000 120.000000"
 preserveAspectRatio="xMidYMid meet">
<metadata>
Created by potrace 1.11, written by Peter Selinger 2001-2013
</metadata>
<g transform="translate(0.000000,120.000000) scale(0.100000,-0.100000)"
fill="#000000" stroke="none">
<path d="M486 1188 c5 -8 0 -9 -14 -6 -12 4 -25 2 -28 -3 -3 -5 -10 -7 -15 -4
-5 4 -9 2 -9 -4 0 -5 -8 -8 -17 -7 -10 2 -24 -3 -31 -11 -8 -7 -18 -11 -23 -8
-5 4 -9 1 -9 -5 0 -6 -4 -8 -10 -5 -5 3 -10 1 -10 -6 0 -7 -3 -10 -6 -6 -4 3
-13 -1 -21 -9 -8 -8 -19 -11 -25 -8 -6 4 -8 3 -5 -3 4 -6 -9 -18 -28 -29 -18
-10 -32 -21 -30 -24 3 -4 -7 -12 -20 -18 -14 -7 -25 -18 -25 -26 0 -8 -9 -18
-20 -21 -11 -3 -20 -12 -20 -19 0 -7 -9 -22 -20 -34 -12 -12 -18 -22 -14 -22
3 0 1 -7 -6 -15 -7 -8 -9 -15 -4 -15 4 0 -1 -7 -12 -15 -10 -8 -16 -15 -11
-15 4 0 -2 -16 -13 -37 -10 -20 -17 -40 -14 -45 3 -4 -1 -8 -8 -8 -10 0 -10
-2 1 -9 9 -6 10 -11 2 -15 -6 -4 -9 -12 -6 -17 4 -5 2 -9 -4 -9 -14 0 -11
-201 3 -219 9 -12 8 -13 -3 -7 -9 6 -8 1 3 -17 13 -20 14 -26 4 -30 -10 -4
-10 -6 0 -6 6 -1 12 -10 12 -21 0 -11 4 -20 9 -20 5 0 7 -10 4 -22 -4 -19 -3
-20 6 -8 9 13 11 13 12 -2 3 -35 4 -39 17 -47 8 -5 13 -12 11 -16 -2 -7 17
-38 38 -60 7 -7 9 -15 6 -19 -4 -3 1 -6 10 -6 8 0 19 -9 22 -20 3 -11 11 -20
17 -20 5 0 19 -11 29 -24 10 -13 34 -31 54 -40 19 -9 35 -21 35 -27 0 -6 4 -7
10 -4 5 3 10 1 10 -4 0 -6 3 -10 8 -10 20 3 32 -2 26 -13 -5 -7 -3 -8 5 -4 7
5 20 2 29 -6 9 -7 26 -13 37 -13 11 0 23 -4 27 -9 4 -6 12 -5 21 3 12 9 17 9
23 0 5 -8 3 -10 -7 -4 -11 6 -12 5 -2 -5 10 -11 15 -11 29 1 13 10 16 11 10 1
-6 -11 11 -13 88 -11 53 2 96 6 96 10 0 5 9 6 20 4 11 -2 22 1 25 6 4 5 11 7
16 4 5 -4 9 -1 9 5 0 6 4 8 10 5 5 -3 21 2 35 11 14 9 25 12 25 8 0 -5 7 0 15
10 8 11 15 17 15 13 0 -10 83 43 93 60 5 7 11 12 15 10 8 -4 52 40 50 51 0 4
9 12 21 18 12 6 22 15 21 19 -1 4 7 17 18 30 11 13 18 26 15 29 -4 3 -1 6 6 6
7 0 10 4 7 9 -3 5 1 14 9 21 8 7 13 16 10 20 -3 5 1 14 8 22 8 7 13 21 11 31
-1 9 2 17 7 17 6 0 8 4 4 9 -3 5 -1 12 5 16 6 4 8 11 4 16 -3 5 0 17 8 26 11
14 11 16 -2 8 -12 -7 -13 -6 -3 6 13 16 15 196 2 205 -4 2 -6 11 -2 19 3 8 0
15 -6 15 -6 0 -8 7 -5 15 4 8 1 22 -6 30 -7 8 -9 15 -5 15 5 0 0 10 -11 22
-10 12 -13 18 -6 14 8 -5 2 10 -12 33 -14 22 -26 45 -26 51 0 5 -4 10 -9 10
-5 0 -13 9 -16 20 -4 11 -11 18 -16 15 -5 -3 -6 0 -3 8 3 9 -3 17 -16 20 -12
3 -19 10 -15 16 3 6 -1 11 -10 11 -9 0 -13 5 -10 10 3 6 -1 10 -9 10 -8 0 -21
8 -28 18 -19 26 -108 83 -119 77 -5 -4 -9 -2 -9 3 0 9 -37 25 -52 23 -5 -1 -8
4 -8 10 0 8 -5 7 -16 -1 -12 -11 -15 -11 -12 -1 4 16 -28 21 -157 26 -62 3
-92 0 -97 -8 -6 -9 -8 -9 -8 1 0 6 -5 12 -11 12 -5 0 -7 -5 -3 -12z m-91 -358
c-9 -14 8 -13 23 2 9 9 12 9 12 -1 0 -7 4 -10 10 -6 22 14 130 -52 113 -69 -4
-3 -1 -6 6 -6 7 0 9 -4 6 -10 -3 -5 -3 -10 2 -10 4 0 8 -13 8 -30 1 -16 -3
-30 -7 -30 -4 0 -5 -7 -2 -15 4 -8 1 -15 -6 -15 -6 0 -9 -4 -5 -9 3 -5 -6 -21
-20 -35 -14 -14 -25 -27 -25 -30 0 -3 -15 -21 -32 -40 -52 -54 -69 -76 -57
-76 5 0 7 -5 3 -11 -5 -8 -1 -8 13 0 14 7 23 7 31 -1 9 -9 12 -9 12 1 0 7 5 9
11 5 6 -3 31 -6 55 -6 24 1 46 -4 50 -10 4 -7 3 -8 -4 -4 -8 5 -12 -1 -12 -14
0 -13 4 -19 12 -14 7 4 8 3 4 -4 -4 -7 -14 -12 -22 -12 -8 0 -13 -4 -10 -9 7
-10 -20 -9 -30 2 -12 12 -26 8 -18 -5 5 -9 2 -9 -9 1 -10 8 -17 9 -17 3 0 -7
-10 -8 -29 -2 -19 5 -33 4 -40 -3 -7 -7 -11 -7 -11 -1 0 10 -61 10 -88 -1 -7
-2 -10 0 -7 5 4 7 -5 8 -26 5 -19 -3 -30 -3 -26 1 4 4 2 13 -4 21 -9 10 -8 13
1 13 7 0 10 7 6 16 -3 8 -2 12 4 9 10 -6 15 9 10 30 -1 6 1 7 5 3 4 -4 23 12
43 34 21 22 47 50 58 63 37 37 75 101 76 126 2 43 -2 60 -11 54 -5 -3 -12 -1
-16 5 -16 26 -74 -10 -69 -43 3 -23 -12 -30 -63 -32 -38 -1 -44 1 -40 17 3 10
0 18 -5 18 -6 0 -3 10 8 22 10 12 13 18 6 14 -11 -7 -11 -4 -1 12 7 12 15 19
18 17 2 -3 14 9 27 26 13 18 25 26 29 20 3 -6 1 -11 -6 -11 -7 0 -10 -3 -6 -6
3 -4 18 3 33 15 29 23 39 27 29 11z m395 -1 c0 8 11 7 35 -3 20 -9 35 -11 35
-5 0 5 10 1 22 -11 12 -11 28 -20 35 -20 8 0 11 -4 8 -10 -3 -5 -1 -10 5 -10
6 0 10 -6 8 -12 -1 -7 4 -24 11 -37 9 -16 9 -21 1 -16 -7 4 -10 2 -9 -6 5 -23
-11 -59 -31 -69 -20 -11 -17 -40 4 -40 7 0 19 -15 27 -32 14 -30 15 -52 6 -98
-3 -19 -43 -60 -58 -60 -5 0 -7 -6 -3 -12 5 -8 0 -7 -11 2 -11 9 -16 10 -11 3
4 -7 4 -14 -1 -14 -4 -1 -18 -3 -30 -4 -12 -1 -28 -5 -37 -8 -8 -3 -18 -1 -22
5 -4 7 -9 6 -15 -3 -7 -11 -9 -11 -9 -1 0 7 -4 10 -10 7 -5 -3 -10 -1 -10 4 0
6 -3 10 -7 9 -15 -5 -73 27 -73 39 0 7 -4 13 -10 13 -5 0 -6 7 -3 17 4 11 3
14 -5 9 -8 -5 -11 1 -10 17 2 22 6 24 40 23 21 -1 38 1 38 6 0 4 9 -1 20 -12
11 -11 20 -24 20 -30 0 -14 36 -30 64 -28 13 1 23 5 20 9 -2 4 1 9 6 11 15 5
20 61 6 70 -7 5 -6 8 4 8 29 0 -35 35 -68 36 -19 1 -39 7 -45 14 -9 10 -9 11
1 6 6 -4 12 -3 12 1 0 5 -6 15 -12 22 -10 11 -10 13 0 7 7 -4 12 -2 12 6 0 10
12 14 38 12 32 -1 41 3 55 27 9 17 12 31 6 34 -14 9 -11 27 4 20 6 -4 1 2 -12
13 -20 16 -38 20 -73 13 -4 0 -10 -10 -13 -22 -8 -23 -47 -42 -56 -27 -4 6
-15 6 -29 -2 -15 -8 -20 -8 -16 -1 4 6 3 11 -2 11 -6 0 -13 7 -16 16 -3 8 -2
12 4 9 5 -3 12 5 16 19 6 26 84 85 84 64 0 -8 6 -6 17 5 12 12 20 14 30 5 9
-7 13 -7 13 1z"/>
</g>
</svg>
